<mxfile host="app.diagrams.net" agent="Mozilla/5.0 (Windows NT 10.0; Win64; x64) AppleWebKit/537.36 (KHTML, like Gecko) Chrome/135.0.0.0 Safari/537.36" version="26.2.13">
  <diagram id="C5RBs43oDa-KdzZeNtuy" name="Page-1">
    <mxGraphModel dx="1830" dy="2792" grid="1" gridSize="10" guides="1" tooltips="1" connect="1" arrows="1" fold="1" page="1" pageScale="1" pageWidth="827" pageHeight="1169" math="0" shadow="0">
      <root>
        <mxCell id="WIyWlLk6GJQsqaUBKTNV-0" />
        <mxCell id="WIyWlLk6GJQsqaUBKTNV-1" parent="WIyWlLk6GJQsqaUBKTNV-0" />
        <mxCell id="WIyWlLk6GJQsqaUBKTNV-2" value="" style="rounded=0;html=1;jettySize=auto;orthogonalLoop=1;fontSize=11;endArrow=block;endFill=0;endSize=8;strokeWidth=1;shadow=0;labelBackgroundColor=none;edgeStyle=orthogonalEdgeStyle;" parent="WIyWlLk6GJQsqaUBKTNV-1" source="WIyWlLk6GJQsqaUBKTNV-3" target="WIyWlLk6GJQsqaUBKTNV-6" edge="1">
          <mxGeometry relative="1" as="geometry" />
        </mxCell>
        <mxCell id="WMLP6IzIhIKLdvRmTj-3-6" value="&lt;b&gt;&lt;u&gt;Enter&lt;/u&gt;&lt;/b&gt;&lt;div&gt;&lt;b&gt;&lt;u&gt;Loop&lt;/u&gt;&lt;/b&gt;&lt;/div&gt;" style="edgeLabel;html=1;align=center;verticalAlign=middle;resizable=0;points=[];" parent="WIyWlLk6GJQsqaUBKTNV-2" vertex="1" connectable="0">
          <mxGeometry x="-0.0857" relative="1" as="geometry">
            <mxPoint as="offset" />
          </mxGeometry>
        </mxCell>
        <mxCell id="WIyWlLk6GJQsqaUBKTNV-3" value="&lt;u&gt;&lt;b&gt;Initialization&lt;/b&gt;&lt;/u&gt;&lt;br&gt;primes [0] = 2;&lt;br&gt;numPrimes = 1;&lt;br&gt;curPrime  = 2;" style="rounded=1;whiteSpace=wrap;html=1;fontSize=12;glass=0;strokeWidth=1;shadow=0;" parent="WIyWlLk6GJQsqaUBKTNV-1" vertex="1">
          <mxGeometry x="321.5" y="-1169" width="130" height="70" as="geometry" />
        </mxCell>
        <mxCell id="4sU3sMb4ji6Bm4S2hSPm-18" style="edgeStyle=orthogonalEdgeStyle;rounded=0;orthogonalLoop=1;jettySize=auto;html=1;entryX=0.5;entryY=0;entryDx=0;entryDy=0;" edge="1" parent="WIyWlLk6GJQsqaUBKTNV-1" source="WIyWlLk6GJQsqaUBKTNV-6" target="WMLP6IzIhIKLdvRmTj-3-1">
          <mxGeometry relative="1" as="geometry" />
        </mxCell>
        <mxCell id="4sU3sMb4ji6Bm4S2hSPm-54" value="&lt;b&gt;&lt;u&gt;&lt;font style=&quot;font-size: 14px;&quot;&gt;True&lt;/font&gt;&lt;/u&gt;&lt;/b&gt;" style="edgeLabel;html=1;align=center;verticalAlign=middle;resizable=0;points=[];" vertex="1" connectable="0" parent="4sU3sMb4ji6Bm4S2hSPm-18">
          <mxGeometry x="-0.2871" relative="1" as="geometry">
            <mxPoint as="offset" />
          </mxGeometry>
        </mxCell>
        <mxCell id="4sU3sMb4ji6Bm4S2hSPm-19" style="edgeStyle=orthogonalEdgeStyle;rounded=0;orthogonalLoop=1;jettySize=auto;html=1;exitX=1;exitY=0.5;exitDx=0;exitDy=0;entryX=1;entryY=0.5;entryDx=0;entryDy=0;" edge="1" parent="WIyWlLk6GJQsqaUBKTNV-1" source="WIyWlLk6GJQsqaUBKTNV-6" target="4sU3sMb4ji6Bm4S2hSPm-41">
          <mxGeometry relative="1" as="geometry">
            <mxPoint x="446" y="111" as="targetPoint" />
            <mxPoint x="582" y="-956.5" as="sourcePoint" />
            <Array as="points">
              <mxPoint x="520" y="-964" />
              <mxPoint x="520" y="171" />
            </Array>
          </mxGeometry>
        </mxCell>
        <mxCell id="4sU3sMb4ji6Bm4S2hSPm-53" value="&lt;b&gt;&lt;u&gt;&lt;font style=&quot;font-size: 14px;&quot;&gt;False&lt;/font&gt;&lt;/u&gt;&lt;/b&gt;" style="edgeLabel;html=1;align=center;verticalAlign=middle;resizable=0;points=[];" vertex="1" connectable="0" parent="4sU3sMb4ji6Bm4S2hSPm-19">
          <mxGeometry x="-0.9352" y="2" relative="1" as="geometry">
            <mxPoint as="offset" />
          </mxGeometry>
        </mxCell>
        <mxCell id="WIyWlLk6GJQsqaUBKTNV-6" value="&lt;font style=&quot;font-size: 14px;&quot;&gt;while (numPrimes &amp;lt; n)&lt;/font&gt;" style="rhombus;whiteSpace=wrap;html=1;shadow=0;fontFamily=Helvetica;fontSize=12;align=center;strokeWidth=1;spacing=6;spacingTop=-4;" parent="WIyWlLk6GJQsqaUBKTNV-1" vertex="1">
          <mxGeometry x="331" y="-1019" width="111" height="110" as="geometry" />
        </mxCell>
        <mxCell id="4sU3sMb4ji6Bm4S2hSPm-22" style="edgeStyle=orthogonalEdgeStyle;rounded=0;orthogonalLoop=1;jettySize=auto;html=1;entryX=0.5;entryY=0;entryDx=0;entryDy=0;" edge="1" parent="WIyWlLk6GJQsqaUBKTNV-1" source="WMLP6IzIhIKLdvRmTj-3-1" target="4sU3sMb4ji6Bm4S2hSPm-0">
          <mxGeometry relative="1" as="geometry" />
        </mxCell>
        <mxCell id="WMLP6IzIhIKLdvRmTj-3-1" value="curPrime++&lt;div&gt;isPrime = true&lt;/div&gt;" style="whiteSpace=wrap;html=1;shadow=0;strokeWidth=1;spacing=6;spacingTop=-4;" parent="WIyWlLk6GJQsqaUBKTNV-1" vertex="1">
          <mxGeometry x="326" y="-859" width="120" height="60" as="geometry" />
        </mxCell>
        <mxCell id="4sU3sMb4ji6Bm4S2hSPm-26" value="" style="edgeStyle=orthogonalEdgeStyle;rounded=0;orthogonalLoop=1;jettySize=auto;html=1;" edge="1" parent="WIyWlLk6GJQsqaUBKTNV-1" source="WMLP6IzIhIKLdvRmTj-3-11" target="4sU3sMb4ji6Bm4S2hSPm-25">
          <mxGeometry relative="1" as="geometry" />
        </mxCell>
        <mxCell id="WMLP6IzIhIKLdvRmTj-3-11" value="isPrime = false&lt;div&gt;break&lt;/div&gt;" style="whiteSpace=wrap;html=1;shadow=0;strokeWidth=1;spacing=6;spacingTop=-4;" parent="WIyWlLk6GJQsqaUBKTNV-1" vertex="1">
          <mxGeometry x="326.5" y="-419" width="120" height="60" as="geometry" />
        </mxCell>
        <mxCell id="4sU3sMb4ji6Bm4S2hSPm-47" style="edgeStyle=orthogonalEdgeStyle;rounded=0;orthogonalLoop=1;jettySize=auto;html=1;entryX=0.5;entryY=0;entryDx=0;entryDy=0;" edge="1" parent="WIyWlLk6GJQsqaUBKTNV-1" source="WMLP6IzIhIKLdvRmTj-3-23" target="4sU3sMb4ji6Bm4S2hSPm-45">
          <mxGeometry relative="1" as="geometry" />
        </mxCell>
        <mxCell id="4sU3sMb4ji6Bm4S2hSPm-52" style="edgeStyle=orthogonalEdgeStyle;rounded=0;orthogonalLoop=1;jettySize=auto;html=1;entryX=0;entryY=0.5;entryDx=0;entryDy=0;exitX=0;exitY=0.5;exitDx=0;exitDy=0;" edge="1" parent="WIyWlLk6GJQsqaUBKTNV-1" source="WMLP6IzIhIKLdvRmTj-3-23" target="WIyWlLk6GJQsqaUBKTNV-6">
          <mxGeometry relative="1" as="geometry">
            <mxPoint x="229" y="-99" as="sourcePoint" />
            <mxPoint x="230" y="-964" as="targetPoint" />
            <Array as="points">
              <mxPoint x="260" y="-51" />
              <mxPoint x="260" y="-964" />
            </Array>
          </mxGeometry>
        </mxCell>
        <mxCell id="WMLP6IzIhIKLdvRmTj-3-23" value="primes[numPrimes] = curPrime&lt;div&gt;numPrimes++&lt;/div&gt;" style="whiteSpace=wrap;html=1;shadow=0;strokeWidth=1;spacing=6;spacingTop=-4;" parent="WIyWlLk6GJQsqaUBKTNV-1" vertex="1">
          <mxGeometry x="326.5" y="-89" width="120" height="75" as="geometry" />
        </mxCell>
        <mxCell id="4sU3sMb4ji6Bm4S2hSPm-44" style="edgeStyle=orthogonalEdgeStyle;rounded=0;orthogonalLoop=1;jettySize=auto;html=1;exitX=0;exitY=0.5;exitDx=0;exitDy=0;entryX=0;entryY=0.5;entryDx=0;entryDy=0;" edge="1" parent="WIyWlLk6GJQsqaUBKTNV-1" source="WMLP6IzIhIKLdvRmTj-3-32" target="4sU3sMb4ji6Bm4S2hSPm-41">
          <mxGeometry relative="1" as="geometry" />
        </mxCell>
        <mxCell id="4sU3sMb4ji6Bm4S2hSPm-55" style="edgeStyle=orthogonalEdgeStyle;rounded=0;orthogonalLoop=1;jettySize=auto;html=1;entryX=0.5;entryY=0;entryDx=0;entryDy=0;" edge="1" parent="WIyWlLk6GJQsqaUBKTNV-1" source="WMLP6IzIhIKLdvRmTj-3-32" target="WMLP6IzIhIKLdvRmTj-3-34">
          <mxGeometry relative="1" as="geometry" />
        </mxCell>
        <mxCell id="WMLP6IzIhIKLdvRmTj-3-32" value="str+=&quot; &quot; + primes[i]" style="whiteSpace=wrap;html=1;rounded=0;" parent="WIyWlLk6GJQsqaUBKTNV-1" vertex="1">
          <mxGeometry x="326.5" y="281" width="120" height="60" as="geometry" />
        </mxCell>
        <mxCell id="WMLP6IzIhIKLdvRmTj-3-34" value="System.out.print(str)&lt;div&gt;return str&lt;/div&gt;" style="whiteSpace=wrap;html=1;rounded=0;" parent="WIyWlLk6GJQsqaUBKTNV-1" vertex="1">
          <mxGeometry x="326.5" y="391" width="120" height="60" as="geometry" />
        </mxCell>
        <mxCell id="4sU3sMb4ji6Bm4S2hSPm-23" style="edgeStyle=orthogonalEdgeStyle;rounded=0;orthogonalLoop=1;jettySize=auto;html=1;entryX=0.5;entryY=0;entryDx=0;entryDy=0;" edge="1" parent="WIyWlLk6GJQsqaUBKTNV-1" source="4sU3sMb4ji6Bm4S2hSPm-0" target="4sU3sMb4ji6Bm4S2hSPm-7">
          <mxGeometry relative="1" as="geometry" />
        </mxCell>
        <mxCell id="4sU3sMb4ji6Bm4S2hSPm-0" value="(int i = 0; i &amp;lt;= numPrimes-1; i++)" style="rhombus;whiteSpace=wrap;html=1;" vertex="1" parent="WIyWlLk6GJQsqaUBKTNV-1">
          <mxGeometry x="331" y="-729" width="110" height="110" as="geometry" />
        </mxCell>
        <mxCell id="4sU3sMb4ji6Bm4S2hSPm-14" style="edgeStyle=orthogonalEdgeStyle;rounded=0;orthogonalLoop=1;jettySize=auto;html=1;entryX=0.5;entryY=0;entryDx=0;entryDy=0;" edge="1" parent="WIyWlLk6GJQsqaUBKTNV-1" source="4sU3sMb4ji6Bm4S2hSPm-7" target="WMLP6IzIhIKLdvRmTj-3-11">
          <mxGeometry relative="1" as="geometry" />
        </mxCell>
        <mxCell id="4sU3sMb4ji6Bm4S2hSPm-58" value="&lt;b&gt;&lt;u&gt;True&lt;/u&gt;&lt;/b&gt;" style="edgeLabel;html=1;align=center;verticalAlign=middle;resizable=0;points=[];" vertex="1" connectable="0" parent="4sU3sMb4ji6Bm4S2hSPm-14">
          <mxGeometry x="-0.1868" y="-2" relative="1" as="geometry">
            <mxPoint as="offset" />
          </mxGeometry>
        </mxCell>
        <mxCell id="4sU3sMb4ji6Bm4S2hSPm-24" style="edgeStyle=orthogonalEdgeStyle;rounded=0;orthogonalLoop=1;jettySize=auto;html=1;exitX=0;exitY=0.5;exitDx=0;exitDy=0;entryX=0;entryY=0.5;entryDx=0;entryDy=0;" edge="1" parent="WIyWlLk6GJQsqaUBKTNV-1" source="4sU3sMb4ji6Bm4S2hSPm-7" target="4sU3sMb4ji6Bm4S2hSPm-0">
          <mxGeometry relative="1" as="geometry">
            <Array as="points">
              <mxPoint x="290" y="-519" />
              <mxPoint x="290" y="-674" />
            </Array>
          </mxGeometry>
        </mxCell>
        <mxCell id="4sU3sMb4ji6Bm4S2hSPm-57" value="&lt;b&gt;&lt;u&gt;False&lt;/u&gt;&lt;/b&gt;" style="edgeLabel;html=1;align=center;verticalAlign=middle;resizable=0;points=[];" vertex="1" connectable="0" parent="4sU3sMb4ji6Bm4S2hSPm-24">
          <mxGeometry x="-0.7702" y="-1" relative="1" as="geometry">
            <mxPoint as="offset" />
          </mxGeometry>
        </mxCell>
        <mxCell id="4sU3sMb4ji6Bm4S2hSPm-7" value="if (isDivisible (primes[i], curPrime))" style="rounded=0;whiteSpace=wrap;html=1;" vertex="1" parent="WIyWlLk6GJQsqaUBKTNV-1">
          <mxGeometry x="326" y="-549" width="120" height="60" as="geometry" />
        </mxCell>
        <mxCell id="4sU3sMb4ji6Bm4S2hSPm-38" style="edgeStyle=orthogonalEdgeStyle;rounded=0;orthogonalLoop=1;jettySize=auto;html=1;entryX=0.5;entryY=0;entryDx=0;entryDy=0;" edge="1" parent="WIyWlLk6GJQsqaUBKTNV-1" source="4sU3sMb4ji6Bm4S2hSPm-25" target="4sU3sMb4ji6Bm4S2hSPm-36">
          <mxGeometry relative="1" as="geometry" />
        </mxCell>
        <mxCell id="4sU3sMb4ji6Bm4S2hSPm-25" value="end of for" style="whiteSpace=wrap;html=1;shadow=0;strokeWidth=1;spacing=6;spacingTop=-4;" vertex="1" parent="WIyWlLk6GJQsqaUBKTNV-1">
          <mxGeometry x="326.5" y="-329" width="120" height="60" as="geometry" />
        </mxCell>
        <mxCell id="4sU3sMb4ji6Bm4S2hSPm-39" style="edgeStyle=orthogonalEdgeStyle;rounded=0;orthogonalLoop=1;jettySize=auto;html=1;entryX=0.5;entryY=0;entryDx=0;entryDy=0;" edge="1" parent="WIyWlLk6GJQsqaUBKTNV-1" source="4sU3sMb4ji6Bm4S2hSPm-36" target="WMLP6IzIhIKLdvRmTj-3-23">
          <mxGeometry relative="1" as="geometry" />
        </mxCell>
        <mxCell id="4sU3sMb4ji6Bm4S2hSPm-59" value="True" style="edgeLabel;html=1;align=center;verticalAlign=middle;resizable=0;points=[];" vertex="1" connectable="0" parent="4sU3sMb4ji6Bm4S2hSPm-39">
          <mxGeometry x="-0.1515" relative="1" as="geometry">
            <mxPoint as="offset" />
          </mxGeometry>
        </mxCell>
        <mxCell id="4sU3sMb4ji6Bm4S2hSPm-36" value="if (isPrime)" style="rhombus;whiteSpace=wrap;html=1;" vertex="1" parent="WIyWlLk6GJQsqaUBKTNV-1">
          <mxGeometry x="346" y="-229" width="80" height="80" as="geometry" />
        </mxCell>
        <mxCell id="4sU3sMb4ji6Bm4S2hSPm-43" style="edgeStyle=orthogonalEdgeStyle;rounded=0;orthogonalLoop=1;jettySize=auto;html=1;" edge="1" parent="WIyWlLk6GJQsqaUBKTNV-1" source="4sU3sMb4ji6Bm4S2hSPm-41" target="WMLP6IzIhIKLdvRmTj-3-32">
          <mxGeometry relative="1" as="geometry" />
        </mxCell>
        <mxCell id="4sU3sMb4ji6Bm4S2hSPm-41" value="int i = 0; i &amp;lt;= numPrimes-1; i++" style="rhombus;whiteSpace=wrap;html=1;" vertex="1" parent="WIyWlLk6GJQsqaUBKTNV-1">
          <mxGeometry x="346" y="131" width="80" height="80" as="geometry" />
        </mxCell>
        <mxCell id="4sU3sMb4ji6Bm4S2hSPm-46" style="edgeStyle=orthogonalEdgeStyle;rounded=0;orthogonalLoop=1;jettySize=auto;html=1;entryX=0.5;entryY=0;entryDx=0;entryDy=0;" edge="1" parent="WIyWlLk6GJQsqaUBKTNV-1" source="4sU3sMb4ji6Bm4S2hSPm-45" target="4sU3sMb4ji6Bm4S2hSPm-41">
          <mxGeometry relative="1" as="geometry" />
        </mxCell>
        <mxCell id="4sU3sMb4ji6Bm4S2hSPm-45" value="End of while" style="rounded=0;whiteSpace=wrap;html=1;" vertex="1" parent="WIyWlLk6GJQsqaUBKTNV-1">
          <mxGeometry x="326.5" y="41" width="120" height="60" as="geometry" />
        </mxCell>
      </root>
    </mxGraphModel>
  </diagram>
</mxfile>
